<svg width="240" height="56" viewBox="0 0 240 56" fill="none" xmlns="http://www.w3.org/2000/svg" role="img" aria-labelledby="title">
  <title id="title">ONREP</title>
  <rect x="0.5" y="0.5" width="239" height="55" rx="27.5" fill="#0A0A0A" stroke="rgba(255,255,255,0.16)"/>
  <circle cx="30" cy="28" r="10" fill="#F7C600"/>
  <path d="M57.168 36V20.4H60.576L68.976 30.768V20.4H73.008V36H69.648L61.2 25.704V36H57.168ZM83.9755 36.288C79.1275 36.288 75.7195 32.904 75.7195 28.2C75.7195 23.496 79.1275 20.112 83.9755 20.112C88.8475 20.112 92.2315 23.496 92.2315 28.2C92.2315 32.904 88.8475 36.288 83.9755 36.288ZM83.9755 32.832C86.4235 32.832 88.1275 31.008 88.1275 28.2C88.1275 25.392 86.4235 23.568 83.9755 23.568C81.5275 23.568 79.8235 25.392 79.8235 28.2C79.8235 31.008 81.5275 32.832 83.9755 32.832ZM94.5551 36V20.4H101.347C105.259 20.4 107.635 22.296 107.635 25.776C107.635 29.208 105.259 31.176 101.347 31.176H98.5871V36H94.5551ZM98.5871 27.984H101.083C102.691 27.984 103.507 27.264 103.507 25.776C103.507 24.312 102.691 23.592 101.083 23.592H98.5871V27.984ZM109.875 36V20.4H121.395V23.616H113.907V26.496H120.651V29.52H113.907V32.784H121.683V36H109.875ZM124.125 36V20.4H131.253C135.069 20.4 137.349 22.176 137.349 25.44C137.349 27.6 136.197 29.136 134.109 29.856L137.685 36H133.173L130.077 30.528H128.157V36H124.125ZM128.157 27.48H130.989C132.525 27.48 133.221 26.808 133.221 25.44C133.221 24.072 132.525 23.424 130.989 23.424H128.157V27.48Z" fill="white"/>
</svg>
